<svg id="visual" viewBox="0 0 960 100" width="960" height="100" xmlns="http://www.w3.org/2000/svg" xmlns:xlink="http://www.w3.org/1999/xlink" version="1.1"><path d="M0 51L12.3 49.3C24.7 47.7 49.3 44.3 74 43.7C98.7 43 123.3 45 148 46.3C172.7 47.7 197.3 48.3 221.8 50.5C246.3 52.7 270.7 56.3 295.2 55.7C319.7 55 344.3 50 369 45.3C393.7 40.7 418.3 36.3 443 37.7C467.7 39 492.3 46 517 49.8C541.7 53.7 566.3 54.3 591 52.5C615.7 50.7 640.3 46.3 664.8 47.8C689.3 49.3 713.7 56.7 738.2 57.5C762.7 58.3 787.3 52.7 812 46C836.7 39.3 861.3 31.7 886 31.5C910.7 31.3 935.3 38.7 947.7 42.3L960 46L960 0L947.7 0C935.3 0 910.7 0 886 0C861.3 0 836.7 0 812 0C787.3 0 762.7 0 738.2 0C713.7 0 689.3 0 664.8 0C640.3 0 615.7 0 591 0C566.3 0 541.7 0 517 0C492.3 0 467.7 0 443 0C418.3 0 393.7 0 369 0C344.3 0 319.7 0 295.2 0C270.7 0 246.3 0 221.8 0C197.3 0 172.7 0 148 0C123.3 0 98.7 0 74 0C49.3 0 24.7 0 12.3 0L0 0Z" fill="#1f2937" stroke-linecap="round" stroke-linejoin="miter"></path></svg>